<svg width="35" height="37" viewBox="0 0 35 37" fill="none" xmlns="http://www.w3.org/2000/svg">
<path d="M18.7289 0.541552L25.6641 2.67401C32.0347 4.63289 35.5943 11.3312 33.6148 17.6351L28.5019 36.8572L9.40519 30.2328C3.03458 28.2739 -0.525071 21.5756 1.45451 15.2717L3.60952 8.40908C5.58906 2.1051 12.3583 -1.41731 18.7289 0.541552Z" fill="url(#paint0_linear_1_2124)"/>
<path fill-rule="evenodd" clip-rule="evenodd" d="M14.3478 12.3782C14.0128 12.5695 13.8979 12.9934 14.0914 13.3249L16.8283 18.0152C16.8554 18.0616 16.9153 18.0775 16.9623 18.0507C17.0271 18.0136 17.1083 18.0607 17.1094 18.1349C17.11 18.1892 17.1552 18.2334 17.2101 18.2327L20.6576 18.1874C21.0445 18.1822 21.354 17.8679 21.3488 17.4851C21.3437 17.1023 21.0259 16.7962 20.6391 16.8013L19.3904 16.8178C18.3835 16.831 17.4479 16.3047 16.9443 15.4417L15.3047 12.6318C15.1112 12.3003 14.6828 12.1867 14.3478 12.3782Z" fill="white"/>
<path fill-rule="evenodd" clip-rule="evenodd" d="M20.8208 7.74957C20.9305 7.19346 21.5152 6.86054 22.0325 7.10339C23.8374 7.95104 25.4097 9.33082 26.4842 11.1724C29.3009 16.0001 27.6294 22.1732 22.7507 24.9604C17.872 27.7477 11.6335 26.0936 8.81678 21.266C6.00003 16.4383 7.67161 10.2652 12.5504 7.47788C13.9567 6.67442 15.476 6.24002 16.9937 6.14434C17.5673 6.10811 17.986 6.63566 17.8758 7.19393C17.7891 7.63422 17.3964 7.94467 16.9446 7.98221C15.758 8.08108 14.5741 8.43365 13.4746 9.06185C9.4799 11.344 8.11127 16.3985 10.4175 20.3515C12.7238 24.3044 17.8319 25.6587 21.8265 23.3765C25.8212 21.0943 27.1898 16.0398 24.8835 12.0869C24.0338 10.6306 22.8037 9.52696 21.3893 8.82798C20.9821 8.62679 20.7337 8.19155 20.8208 7.74957Z" fill="white"/>
<path d="M20.8276 18.1702L20.8231 17.8262L20.8276 18.1702ZM20.8091 16.7841L20.8136 17.1281L20.8091 16.7841ZM15.4747 12.6146L15.1735 12.7866L15.4747 12.6146ZM14.5625 13.1357C14.4651 12.9687 14.5229 12.7552 14.6917 12.6589L14.3439 12.063C13.8425 12.3493 13.6707 12.9836 13.9602 13.4797L14.5625 13.1357ZM17.2994 17.826L14.5625 13.1357L13.9602 13.4797L16.697 18.17L17.2994 17.826ZM20.8231 17.8262L17.3754 17.8715L17.3847 18.5595L20.8323 18.5142L20.8231 17.8262ZM21.1711 17.4725C21.1737 17.6652 21.0179 17.8235 20.8231 17.8262L20.8323 18.5142C21.4112 18.5066 21.8742 18.0361 21.8665 17.4633L21.1711 17.4725ZM20.8136 17.1281C21.0084 17.1256 21.1685 17.2797 21.1711 17.4725L21.8665 17.4633C21.8588 16.8906 21.3833 16.4325 20.8045 16.4401L20.8136 17.1281ZM19.5651 17.1446L20.8136 17.1281L20.8045 16.4401L19.5559 16.4565L19.5651 17.1446ZM15.1735 12.7866L16.8131 15.5965L17.4154 15.2525L15.7758 12.4426L15.1735 12.7866ZM14.6917 12.6589C14.8603 12.5625 15.0761 12.6197 15.1735 12.7866L15.7758 12.4426C15.4863 11.9465 14.8452 11.7765 14.3439 12.063L14.6917 12.6589ZM16.9316 18.1222C16.9349 18.3627 17.1339 18.5629 17.3847 18.5595L17.3754 17.8715C17.5164 17.8696 17.6252 17.9812 17.627 18.1131L16.9316 18.1222ZM19.5559 16.4565C18.6747 16.468 17.856 16.0076 17.4154 15.2525L16.8131 15.5965C17.3796 16.5674 18.4322 17.1595 19.5651 17.1446L19.5559 16.4565ZM17.306 18.3315C17.1336 18.43 16.934 18.3025 16.9316 18.1222L17.627 18.1131C17.6226 17.7845 17.2605 17.5629 16.9583 17.7355L17.306 18.3315ZM16.697 18.17C16.8202 18.381 17.0929 18.4533 17.306 18.3315L16.9583 17.7355C17.0777 17.6673 17.2304 17.7078 17.2994 17.826L16.697 18.17Z" fill="white"/>
<path d="M26.8856 11.4019C25.7626 9.47717 24.1183 8.0341 22.2311 7.14788L21.8335 7.9769C23.5561 8.78588 25.0565 10.1024 26.0825 11.8608L26.8856 11.4019ZM22.9823 25.8167C28.0828 22.9028 29.8303 16.449 26.8856 11.4019L26.0825 11.8608C28.7712 16.469 27.1756 22.3616 22.5187 25.0221L22.9823 25.8167ZM8.41504 21.9543C11.3598 27.0014 17.8818 28.7307 22.9823 25.8167L22.5187 25.0221C17.8617 27.6827 11.9068 26.1038 9.21809 21.4956L8.41504 21.9543ZM12.3183 7.5395C7.21783 10.4535 5.47027 16.9072 8.41504 21.9543L9.21809 21.4956C6.52944 16.8873 8.12505 10.9948 12.782 8.33416L12.3183 7.5395ZM16.964 6.14539C15.3766 6.24547 13.7878 6.7 12.3183 7.5395L12.782 8.33416C14.1251 7.56684 15.5749 7.15247 17.023 7.0611L16.964 6.14539ZM13.7062 9.91813C14.7455 9.32448 15.8633 8.99166 16.9833 8.89841L16.9056 7.98401C15.6524 8.08831 14.4024 8.46083 13.2426 9.12347L13.7062 9.91813ZM10.8189 20.581C8.64059 16.8476 9.93326 12.0737 13.7062 9.91813L13.2426 9.12347C9.02613 11.5324 7.58142 16.8675 10.0158 21.0398L10.8189 20.581ZM21.5944 23.4381C17.8215 25.5936 12.9971 24.3144 10.8189 20.581L10.0158 21.0398C12.4502 25.2121 17.8417 26.6416 22.0581 24.2328L21.5944 23.4381ZM24.4818 12.7753C26.6601 16.5087 25.3673 21.2826 21.5944 23.4381L22.0581 24.2328C26.2746 21.8239 27.7192 16.4888 25.2848 12.3165L24.4818 12.7753ZM21.1819 9.69737C22.5177 10.3574 23.6789 11.3992 24.4818 12.7753L25.2848 12.3165C24.3883 10.7798 23.0896 9.61442 21.5962 8.8765L21.1819 9.69737ZM17.023 7.0611C17.2573 7.04631 17.4797 7.26557 17.4207 7.56506L18.3307 7.74079C18.4919 6.92366 17.8771 6.08782 16.964 6.14539L17.023 7.0611ZM21.5962 8.8765C21.352 8.75573 21.2333 8.51166 21.2757 8.29643L20.3655 8.1207C20.2337 8.78943 20.6119 9.41566 21.1819 9.69737L21.5962 8.8765ZM17.4207 7.56506C17.3783 7.77955 17.1769 7.96145 16.9056 7.98401L16.9833 8.89841C17.6155 8.84579 18.1994 8.40671 18.3307 7.74079L17.4207 7.56506ZM22.2311 7.14788C21.4082 6.76142 20.5262 7.30629 20.3655 8.1207L21.2757 8.29643C21.3344 7.99862 21.622 7.87757 21.8335 7.9769L22.2311 7.14788Z" fill="white"/>
<defs>
<linearGradient id="paint0_linear_1_2124" x1="61.9993" y1="-45.0693" x2="9.23779" y2="72.0138" gradientUnits="userSpaceOnUse">
<stop stop-color="#63F4FD"/>
<stop offset="0.67619" stop-color="#8274FE"/>
<stop offset="0.875084" stop-color="#7C2BFF"/>
</linearGradient>
</defs>
</svg>
